<svg xmlns="http://www.w3.org/2000/svg" viewBox="0 0 688 325.26">
  <title>Bring back the old gun emoji.</title>
  <g id="Outline">
    <path fill="#2b2e4a" d="M685.5,29.75l-3-2-1-17h-2v-4a6.46,6.46,0,0,0-3-5c-3-2-13-1-13-1H.5v324l131-3s2,0,3-4-4-47-4-61,1-37,6-47,10-16,16-19,14-7,26-7,18,1,18,1,2,11,7,17,10,15,24,18,40,4,52,0,23-14,26-21a58.39,58.39,0,0,0,4-20c0-4-2-13,4-19s12-7,15-7h36s5-23,6-28,1-14,4-21a133.56,133.56,0,0,0,5-14h303v-22l3-2s2-11,2-18S685.5,29.75,685.5,29.75Zm-385,162c-2,9-6,13-12,17s-10,7-24,8-26-1-33-2-13-5-19-11-8-11-9-16a60.54,60.54,0,0,1,0-19c1-5,4-7,9-12a33.35,33.35,0,0,1,10-7,44.32,44.32,0,0,1,6,5c3,3,9,4,9,4v12a41,41,0,0,0,7,21c6,9,13,14,19,16s8,1,9,0-2-2-2-2-6-3-14-12-6-18-6-22,2-8,5-15,5-9,5-9,20-1,24,0,9,5,13,10,5,13,5,17S302.5,182.75,300.5,191.75Z"/>
  </g>
</svg>