<svg xmlns="http://www.w3.org/2000/svg" viewBox="0 0 380.81 236.01">
  <title>Bring back the real gun emoji.</title>
  <path fill="#2b2e4a" d="M.5.5v235l131.64-3s2,0,3-4-4-47-4-61,1-37,6-47,10-16,16-19,14-7,26-7,18,1,18,1,2,11,7,17,10,15,24,18,40,4,52,0,23-14,26-21a58.39,58.39,0,0,0,4-20c0-4-2-13,4-19s12-7,15-7h36s5-23,6-28,1-14,4-21a133.56,133.56,0,0,0,5-14Zm300.64,102c-2,9-6,13-12,17s-10,7-24,8-26-1-33-2-13-5-19-11-8-11-9-16a60.54,60.54,0,0,1,0-19c1-5,4-7,9-12a33.35,33.35,0,0,1,10-7,44.32,44.32,0,0,1,6,5c3,3,9,4,9,4v12a41,41,0,0,0,7,21c6,9,13,14,19,16s8,1,9,0-2-2-2-2-6-3-14-12-6-18-6-22,2-8,5-15,5-9,5-9,20-1,24,0,9,5,13,10,5,13,5,17S303.14,93.5,301.14,102.5Z"/>
</svg>